# xmcd
#
# Track frame offsets:
#	150
#	14178
#	32598
#	47823
#	63344
#	78808
#	95217
#	109216
#	127574
#	142745
#	158288
#	173789
#	201591
#
# Disc length: 2691 seconds
#
# Revision: 1
# Processed by: cddbd v1.5.2PL0 Copyright (c) Steve Scherf et al.
# Submitted via: audiograbber 1.83.01
#
DISCID=a40a810d
DTITLE=PAM TILLIS - CB20467
DYEAR=1900
DGENRE=KARAOKE
TTITLE0=PAM TILLIS - MI VIDA LOCA (MY CRAZY LIFE) (WVOCAL)
TTITLE1=PAM TILLIS - MAYBE IT WAS MEMPHIS (WVOCAL)
TTITLE2=PAM TILLIS - DON'T TELL ME WHAT TO DO (WVOCAL)
TTITLE3=PAM TILLIS - CLEOPATRA QUEEN OF DENIAL (WVOCAL)
TTITLE4=PAM TILLIS - SHAKE THE SUGAR TREE (WVOCAL)
TTITLE5=PAM TILLIS - LET THAT PONY RUN (WVOCAL)
TTITLE6=PAM TILLIS - MI VIDA LOCA (MY CRAZY LIFE)
TTITLE7=PAM TILLIS - MAYBE IT WAS MEMPHIS
TTITLE8=PAM TILLIS - DON'T TELL ME WHAT TO DO
TTITLE9=PAM TILLIS - CLEOPATRA QUEEN OF DENIAL
TTITLE10=PAM TILLIS - SHAKE THE SUGAR TREE
TTITLE11=PAM TILLIS - LET THAT PONY RUN
TTITLE12=DATA - DATA
EXTD=
EXTT0=
EXTT1=
EXTT2=
EXTT3=
EXTT4=
EXTT5=
EXTT6=
EXTT7=
EXTT8=
EXTT9=
EXTT10=
EXTT11=
EXTT12=
PLAYORDER=
